{"title":"Just.Another.Day.2010.CAM.XVID.FEEL-FREE","uid":5708979,"size":1163467455,"categoryP":"video","categoryS":"movies","magnet":"?xt=urn:btih:4f6cc16d6bdbf096af57ae9b7cc9da4430fe020a&amp;dn=Just.Another.Day.2010.CAM.XVID.FEEL-FREE&amp;tr=udp%3A%2F%2Ftracker.openbittorrent.com%3A80&amp;tr=udp%3A%2F%2Fopen.demonii.com%3A1337&amp;tr=udp%3A%2F%2Ftracker.coppersurfer.tk%3A6969&amp;tr=udp%3A%2F%2Fexodus.desync.com%3A6969","seeders":1,"leechers":0,"uploader":"hiest","files":8,"time":1279811496,"description":"Genre:Drama | Music\nLanguage:English\nIMDb:http://www.imdb.com/title/tt1412367/\nSource:Filmikz.Thanks\nEncoder: Tony2\n..............................................\nGeneral\nComplete name : Just.Another.Day.2010.CAM.XVID.FEEL-FREE\nFormat : AVI\nFormat/Info : Audio Video Interleave\nFile size : 1.08 GiB\nDuration : 1h 34mn\nOverall bit rate : 1 637 Kbps\n...............................................\nVideo\nID : 0\nFormat : MPEG-4 Visual\nFormat profile : Simple@L3\nFormat settings, BVOP : Yes\nFormat settings, QPel : No\nFormat settings, GMC : No warppoints\nFormat settings, Matrix : Default (H.263)\nCodec ID : XVID\nCodec ID/Hint : XviD\nDuration : 1h 34mn\nBit rate : 1 496 Kbps\nWidth : 480 pixels\nHeight : 272 pixels\nDisplay aspect ratio : 16:9\nFrame rate : 30.000 fps\nResolution : 24 bits\nScan type : Progressive\nBits/(Pixel*Frame) : 0.382\nStream size : 1 013 MiB (91%)\n...............................................\nAudio\nID : 1\nFormat : MPEG Audio\nFormat version : Version 1\nFormat profile : Layer 3\nCodec ID : 55\nCodec ID/Hint : MP3\nDuration : 1h 34mn\nBit rate mode : Constant\nBit rate : 128 Kbps\nChannel(s) : 2 channels\nSampling rate : 44.1 KHz\nResolution : 16 bits\nStream size : 86.7 MiB (8%)\nAlignment : Aligned on interleaves\nInterleave, duration : 26 ms (0.78 video frame)\nWriting library : LAME3.97\n...............................................\nPlot:\nFollows a day in the life of two men living at either end of the music game. A successful rapper, A-Maze\n...................................................\nScreenshots : \n &lt;a href=&quot;\nhttp://postimg.com/image/19000/18243.jpg&quot; rel=&quot;nofollow&quot; target=&quot;_NEW&quot;&gt;\nhttp://postimg.com/image/19000/18243.jpg&lt;/a&gt;\n &lt;a href=&quot;\nhttp://postimg.com/image/19000/18244.jpg&quot; rel=&quot;nofollow&quot; target=&quot;_NEW&quot;&gt;\nhttp://postimg.com/image/19000/18244.jpg&lt;/a&gt;\n\n.......................................................","torrent":{"xt":"urn:btih:4f6cc16d6bdbf096af57ae9b7cc9da4430fe020a","amp;dn":"Just.Another.Day.2010.CAM.XVID.FEEL-FREE","amp;tr":["udp%3A%2F%2Ftracker.openbittorrent.com%3A80","udp%3A%2F%2Fopen.demonii.com%3A1337","udp%3A%2F%2Ftracker.coppersurfer.tk%3A6969","udp%3A%2F%2Fexodus.desync.com%3A6969"],"infoHash":"4f6cc16d6bdbf096af57ae9b7cc9da4430fe020a","infoHashBuffer":{"type":"Buffer","data":[79,108,193,109,107,219,240,150,175,87,174,155,124,201,218,68,48,254,2,10]},"announce":[],"urlList":[]}}